<svg width="97" height="38" viewBox="0 0 97 38" fill="none" xmlns="http://www.w3.org/2000/svg">
<path opacity="0.5" d="M42.9812 30.6005C42.7619 30.4282 42.5085 30.3624 42.241 30.3624C41.8943 30.3624 41.6806 30.4745 41.6806 30.7643C41.6806 31.4169 43.3874 31.134 43.3874 32.3215C43.3874 33.0343 42.7477 33.2906 42.1137 33.2906C41.6933 33.2906 41.2532 33.1785 41.014 32.8943L41.3268 32.505C41.5405 32.7164 41.8264 32.8088 42.1675 32.8088C42.5213 32.8088 42.7873 32.7094 42.7873 32.3467C42.7873 31.6409 41.0735 31.9504 41.0735 30.7965C41.0735 30.1636 41.6198 29.8667 42.3005 29.8667C42.6798 29.8667 43.0477 29.9591 43.3011 30.2098L42.9812 30.6005Z" fill="#295EA5"/>
<path opacity="0.5" d="M44.4007 28.4441C44.6215 28.4441 44.7871 28.6093 44.7871 28.8264C44.7871 29.0504 44.6201 29.2157 44.4007 29.2157C44.1814 29.2157 44.0144 29.0448 44.0144 28.8264C44.0144 28.6079 44.1814 28.4441 44.4007 28.4441ZM44.7008 29.9355V33.2277H44.1007V29.9355H44.7008Z" fill="#295EA5"/>
<path opacity="0.5" d="M46.3014 29.9354V30.6215C46.4543 30.1594 46.8081 29.8569 47.3487 29.8569C47.8426 29.8569 48.1554 30.1146 48.2615 30.6355C48.4285 30.1734 48.7951 29.8569 49.3216 29.8569C49.9216 29.8569 50.2684 30.2588 50.2684 30.952V33.2276H49.6683V31.0907C49.6683 30.6481 49.5749 30.3975 49.2154 30.3975C48.7427 30.3975 48.2955 30.8596 48.2955 32.0527V33.2276H47.6954V31.0766C47.6954 30.6677 47.6091 30.3975 47.2426 30.3975C46.7699 30.3975 46.3297 30.8596 46.3297 32.0527V33.2276H45.7296V29.9354H46.3014Z" fill="#295EA5"/>
<path opacity="0.5" d="M51.8421 29.9354V30.5165C52.0487 30.1076 52.4818 29.8569 52.9488 29.8569C53.2828 29.8569 53.5362 29.9816 53.7088 30.1664C54.0159 30.4899 54.1023 31.0108 54.1023 31.5262C54.1023 32.1325 53.982 32.6674 53.6282 32.9909C53.4215 33.1758 53.1286 33.2948 52.7677 33.2948C52.4408 33.2948 52.087 33.1954 51.8605 32.8985V34.8114H51.2605V29.9368H51.8421V29.9354ZM52.1549 30.7195C51.9214 31.0094 51.8421 31.3861 51.8421 31.7558C51.8421 32.0723 51.8959 32.3426 52.0487 32.5204C52.1889 32.6856 52.4153 32.7781 52.7026 32.7781C53.263 32.7781 53.4626 32.4224 53.4626 31.5514C53.4626 30.7336 53.2885 30.3835 52.8356 30.3835C52.5752 30.3835 52.3219 30.5081 52.1549 30.7195Z" fill="#295EA5"/>
<path opacity="0.5" d="M55.4284 28.1792V33.2261H54.8283V28.1792H55.4284Z" fill="#295EA5"/>
<path opacity="0.5" d="M58.1357 33.0357C57.7961 34.1308 57.3885 34.8169 56.6285 34.8169C56.4346 34.8169 56.2478 34.7707 56.1487 34.6979L56.3554 34.2036C56.4488 34.2498 56.5492 34.2694 56.6483 34.2694C57.0488 34.2694 57.2682 33.9459 57.5017 33.2009H57.1479L56.0539 29.9353H56.6936L57.6277 32.9041L58.4683 29.9353H59.1024L58.1357 33.0357Z" fill="#295EA5"/>
<path opacity="0.5" d="M63.7755 29.9354V33.3326C63.7755 34.0916 63.4882 34.824 62.2414 34.824C61.7687 34.824 61.3215 34.719 61.0016 34.4473L61.3144 33.9992C61.5875 34.2177 61.9215 34.2961 62.281 34.2961C63.0679 34.2961 63.1938 33.9334 63.1938 33.313V32.6465C62.9872 33.0624 62.574 33.2794 62.1069 33.2794C61.7206 33.2794 61.4404 33.1338 61.2606 32.8901C61.0342 32.6003 60.9337 32.1647 60.9337 31.6102C60.9337 31.0501 61.0342 30.5879 61.3271 30.2575C61.5267 30.0334 61.8267 29.8682 62.2669 29.8682C62.6532 29.8682 63.007 29.9928 63.2264 30.3625L63.2391 29.934H63.7755V29.9354ZM62.8485 32.4938C63.0622 32.2698 63.2023 31.9001 63.2023 31.4184C63.2023 31.1089 63.1429 30.805 62.9292 30.6006C62.782 30.4619 62.5825 30.3821 62.3362 30.3821C61.7291 30.3821 61.5762 30.8372 61.5762 31.6158C61.5762 32.3804 61.7234 32.7641 62.223 32.7641C62.4423 32.7641 62.6759 32.6857 62.8485 32.4938Z" fill="#295EA5"/>
<path opacity="0.5" d="M66.9684 32.8636C66.715 33.1339 66.4023 33.2921 65.8814 33.2921C65.3819 33.2921 65.062 33.1409 64.8285 32.8958C64.5284 32.5793 64.4548 32.19 64.4548 31.6355C64.4548 31.0347 64.5412 30.6132 64.8554 30.2772C65.1087 30.0069 65.4427 29.8542 65.9423 29.8542C66.4362 29.8542 66.7688 30.0055 66.9953 30.2505C67.2953 30.574 67.3689 30.9829 67.3689 31.5375C67.3689 32.1382 67.2826 32.5205 66.9684 32.8636ZM66.5084 30.574C66.3952 30.455 66.2282 30.3626 65.9211 30.3626C65.5814 30.3626 65.4215 30.4746 65.321 30.5936C65.1342 30.8177 65.0804 31.2 65.0804 31.6159C65.0804 32.0836 65.1469 32.3805 65.3139 32.5793C65.4144 32.6984 65.6012 32.7838 65.8871 32.7838C66.2197 32.7838 66.4008 32.6718 66.4999 32.5527C66.6796 32.3357 66.7405 31.959 66.7405 31.5501C66.7419 31.123 66.6754 30.7659 66.5084 30.574Z" fill="#295EA5"/>
<path opacity="0.5" d="M70.4088 32.8636C70.1555 33.1339 69.8427 33.2921 69.3219 33.2921C68.8223 33.2921 68.5025 33.1409 68.269 32.8958C67.9689 32.5793 67.8953 32.19 67.8953 31.6355C67.8953 31.0347 67.9817 30.6132 68.2958 30.2772C68.5492 30.0069 68.8832 29.8542 69.3828 29.8542C69.8767 29.8542 70.2093 30.0055 70.4357 30.2505C70.7357 30.574 70.8093 30.9829 70.8093 31.5375C70.8093 32.1382 70.723 32.5205 70.4088 32.8636ZM69.9489 30.574C69.8356 30.455 69.6686 30.3626 69.3615 30.3626C69.0219 30.3626 68.8619 30.4746 68.7615 30.5936C68.5746 30.8177 68.5209 31.2 68.5209 31.6159C68.5209 32.0836 68.5874 32.3805 68.7544 32.5793C68.8549 32.6984 69.0417 32.7838 69.3276 32.7838C69.6601 32.7838 69.8413 32.6718 69.9404 32.5527C70.1201 32.3357 70.181 31.959 70.181 31.5501C70.1824 31.123 70.1159 30.7659 69.9489 30.574Z" fill="#295EA5"/>
<path opacity="0.5" d="M74.2357 28.1792V33.2261H73.6625V32.6449C73.436 33.0608 73.0086 33.2975 72.543 33.2975C72.2303 33.2975 71.9826 33.1925 71.7901 32.981C71.524 32.6911 71.3967 32.2948 71.3967 31.6353C71.3967 31.0485 71.4971 30.5528 71.8099 30.2307C72.0165 30.0137 72.3166 29.868 72.7567 29.868C73.1304 29.868 73.4502 29.9731 73.637 30.2699V28.1792H74.2357ZM73.2889 32.4937C73.5422 32.2304 73.6554 31.8607 73.6554 31.4112C73.6554 31.0289 73.5691 30.7643 73.395 30.5934C73.2422 30.4422 73.0412 30.389 72.8147 30.389C72.1807 30.389 72.0349 30.8175 72.0349 31.6031C72.0349 32.3747 72.1821 32.778 72.6548 32.778C72.8827 32.778 73.1091 32.6855 73.2889 32.4937Z" fill="#295EA5"/>
<path opacity="0.5" d="M77.2289 28.1794V30.567C77.3619 30.1651 77.7554 29.8542 78.2889 29.8542C78.8961 29.8542 79.2556 30.2561 79.2556 30.9493V33.2249H78.6555V31.0543C78.6555 30.6258 78.5423 30.3947 78.1884 30.3947C77.7087 30.3947 77.2289 30.8373 77.2289 32.0766V33.2249H76.6288V28.178H77.2289V28.1794Z" fill="#295EA5"/>
<path opacity="0.5" d="M82.8362 32.7584C82.4767 33.1211 82.0762 33.2933 81.5228 33.2933C81.0558 33.2933 80.7288 33.1687 80.5024 32.9432C80.2363 32.68 80.0962 32.3033 80.0962 31.6759C80.0962 31.155 80.1967 30.6075 80.4897 30.284C80.7034 30.0459 81.036 29.8555 81.5568 29.8555C82.5163 29.8555 82.8701 30.4884 82.8701 31.267C82.8701 31.3721 82.863 31.5443 82.8503 31.6689L80.7161 31.6815C80.7288 32.3551 80.8364 32.7836 81.5228 32.7836C81.9233 32.7836 82.2502 32.638 82.5092 32.3873L82.8362 32.7584ZM82.2502 31.2082C82.2573 30.6733 82.137 30.3512 81.5497 30.3512C80.9425 30.3512 80.7699 30.6943 80.7359 31.2152L82.2502 31.2082Z" fill="#295EA5"/>
<path opacity="0.5" d="M83.5296 30.3303C83.8424 29.9872 84.25 29.8682 84.7368 29.8682C85.5633 29.8682 85.9908 30.2043 85.9908 31.0683V33.2248H85.4374L85.4303 32.6773C85.2166 33.1002 84.8104 33.2976 84.3703 33.2976C84.0632 33.2976 83.8169 33.2052 83.657 33.047C83.4773 32.8817 83.3909 32.6507 83.3909 32.3412C83.3909 31.9589 83.524 31.7208 83.7716 31.55C84.0589 31.3525 84.4651 31.2797 84.9251 31.2797H85.4048V31.1145C85.4048 30.5473 85.2308 30.3625 84.7184 30.3625C84.3519 30.3625 84.0986 30.4549 83.858 30.6986L83.5296 30.3303ZM84.8628 31.7292C84.3292 31.7292 84.0023 31.8147 84.0023 32.316C84.0023 32.6255 84.1226 32.8103 84.4552 32.8103C84.8826 32.8103 85.3893 32.4868 85.4091 31.7278H84.8628V31.7292Z" fill="#295EA5"/>
<path opacity="0.5" d="M87.4103 29.9353L87.4032 30.5879C87.5971 30.0739 87.9438 29.8555 88.3302 29.8555C88.4774 29.8555 88.6175 29.8891 88.7307 29.9479L88.5637 30.5024C88.5043 30.4632 88.3698 30.4436 88.2764 30.4436C87.6961 30.4436 87.4357 31.176 87.4357 31.9616V33.2289H86.8357V29.9367H87.4103V29.9353Z" fill="#295EA5"/>
<path opacity="0.5" d="M89.6435 28.4441C89.8643 28.4441 90.0299 28.6093 90.0299 28.8264C90.0299 29.0504 89.8629 29.2157 89.6435 29.2157C89.4241 29.2157 89.2571 29.0448 89.2571 28.8264C89.2571 28.6079 89.4227 28.4441 89.6435 28.4441ZM89.9435 29.9355V33.2277H89.3435V29.9355H89.9435Z" fill="#295EA5"/>
<path opacity="0.5" d="M91.397 29.9354L91.3899 30.6215C91.5498 30.1594 91.9362 29.8569 92.4768 29.8569C93.1038 29.8569 93.4505 30.2728 93.4505 30.952V33.2276H92.8505V31.0907C92.8505 30.6425 92.7443 30.3975 92.3778 30.3975C91.8584 30.3975 91.4239 30.8918 91.4239 32.0597V33.2276H90.8238V29.9354H91.397Z" fill="#295EA5"/>
<path opacity="0.5" d="M96.983 29.9354V33.3326C96.983 34.0916 96.6957 34.824 95.4489 34.824C94.9762 34.824 94.529 34.719 94.2091 34.4473L94.5219 33.9992C94.795 34.2177 95.129 34.2961 95.4885 34.2961C96.2754 34.2961 96.4013 33.9334 96.4013 33.313V32.6465C96.1947 33.0624 95.7815 33.2794 95.3144 33.2794C94.9281 33.2794 94.6478 33.1338 94.4681 32.8901C94.2417 32.6003 94.1412 32.1647 94.1412 31.6102C94.1412 31.0501 94.2417 30.5879 94.5346 30.2575C94.7342 30.0334 95.0342 29.8682 95.4744 29.8682C95.8607 29.8682 96.2145 29.9928 96.4339 30.3625L96.4466 29.934H96.983V29.9354ZM96.0574 32.4938C96.2711 32.2698 96.4112 31.9001 96.4112 31.4184C96.4112 31.1089 96.3518 30.805 96.1381 30.6006C95.9909 30.4619 95.7914 30.3821 95.5451 30.3821C94.938 30.3821 94.7851 30.8372 94.7851 31.6158C94.7851 32.3804 94.9323 32.7641 95.4319 32.7641C95.6498 32.7641 95.8834 32.6857 96.0574 32.4938Z" fill="#295EA5"/>
<path d="M20.5848 13.7529H22.8096V18.059C23.2469 17.6851 23.6885 17.4051 24.1315 17.2174C24.5744 17.0312 25.0231 16.9373 25.4774 16.9373C26.3647 16.9373 27.112 17.2412 27.7191 17.8476C28.2385 18.3727 28.4989 19.1443 28.4989 20.1623V26.0032H26.2897V22.1284C26.2897 21.1048 26.2402 20.4116 26.1425 20.0489C26.0435 19.6862 25.8765 19.4146 25.6373 19.2367C25.3995 19.0575 25.1052 18.9692 24.7542 18.9692C24.2999 18.9692 23.9093 19.1177 23.5838 19.416C23.2583 19.7142 23.0318 20.1203 22.9059 20.6343C22.8408 20.9003 22.8068 21.5067 22.8068 22.4547V26.0046H20.582V13.7529H20.5848Z" fill="#3A3A3A"/>
<path d="M39.6172 22.2278H32.4164C32.5197 22.8566 32.7985 23.3565 33.2499 23.7262C33.7014 24.0973 34.2774 24.2821 34.978 24.2821C35.8158 24.2821 36.5347 23.9922 37.1376 23.4125L39.0256 24.2905C38.5543 24.9515 37.991 25.4402 37.3344 25.7567C36.6777 26.0732 35.8979 26.2314 34.9949 26.2314C33.5938 26.2314 32.4517 25.7945 31.5714 24.9193C30.6897 24.0441 30.2496 22.949 30.2496 21.6326C30.2496 20.2841 30.6883 19.1638 31.5672 18.2732C32.4461 17.3826 33.5471 16.9373 34.8718 16.9373C36.2786 16.9373 37.4221 17.3826 38.3038 18.2732C39.1855 19.1638 39.6256 20.3415 39.6256 21.8035L39.6172 22.2278ZM37.3754 20.4802C37.2268 19.9872 36.9353 19.5867 36.4994 19.2772C36.0635 18.9692 35.5582 18.8137 34.9822 18.8137C34.3567 18.8137 33.809 18.9874 33.3377 19.3333C33.0419 19.5503 32.7673 19.9312 32.5154 20.4788H37.3754V20.4802Z" fill="#3A3A3A"/>
<path d="M48.0252 17.1655H50.2669V26.0045H48.0252V25.0705C47.5879 25.4822 47.1491 25.7791 46.709 25.9597C46.2689 26.1418 45.7919 26.2314 45.2782 26.2314C44.1247 26.2314 43.127 25.7889 42.2849 24.9025C41.4428 24.0174 41.0225 22.9168 41.0225 21.6004C41.0225 20.2351 41.4301 19.1176 42.2439 18.2452C43.0576 17.3728 44.0483 16.9373 45.2131 16.9373C45.7495 16.9373 46.2519 17.0381 46.7217 17.2383C47.1916 17.4386 47.6261 17.7397 48.0252 18.1402V17.1655ZM45.6688 18.986C44.9753 18.986 44.4007 19.2282 43.9422 19.7128C43.4836 20.1973 43.2544 20.819 43.2544 21.5766C43.2544 22.3398 43.4879 22.9686 43.9535 23.4615C44.4205 23.9544 44.9937 24.2009 45.6759 24.2009C46.3792 24.2009 46.9637 23.9586 47.4265 23.4741C47.8907 22.9896 48.1214 22.3538 48.1214 21.5696C48.1214 20.8008 47.8893 20.1777 47.4265 19.7016C46.9637 19.224 46.3778 18.986 45.6688 18.986Z" fill="#3A3A3A"/>
<path d="M52.8738 17.1655H54.7958V18.2788C55.0038 17.8405 55.2798 17.5072 55.6251 17.2789C55.9704 17.0507 56.3483 16.9373 56.7587 16.9373C57.0488 16.9373 57.3531 17.0129 57.6701 17.1641L56.9724 19.0728C56.7092 18.9426 56.4941 18.8781 56.3242 18.8781C55.9789 18.8781 55.6874 19.0896 55.4496 19.5125C55.2118 19.9354 55.093 20.763 55.093 21.9981L55.1014 22.428V26.0031H52.8738V17.1655Z" fill="#3A3A3A"/>
<path d="M59.718 23.6897C60.0732 23.6897 60.3775 23.8129 60.6294 24.0594C60.8813 24.3059 61.0073 24.6055 61.0073 24.957C61.0073 25.3099 60.8813 25.6096 60.6294 25.8588C60.3775 26.1081 60.0732 26.2327 59.718 26.2327C59.3628 26.2327 59.0585 26.1081 58.8066 25.8588C58.5546 25.6096 58.4287 25.3099 58.4287 24.957C58.4287 24.6055 58.5546 24.3059 58.8066 24.0594C59.0585 23.8129 59.3628 23.6897 59.718 23.6897Z" fill="#3A3A3A"/>
<path d="M71.2183 18.9523L69.353 19.9676C69.0021 19.6049 68.6553 19.3528 68.3128 19.2114C67.9704 19.0699 67.5684 18.9999 67.1085 18.9999C66.2692 18.9999 65.5913 19.2478 65.0733 19.7421C64.5554 20.2364 64.2964 20.8708 64.2964 21.6438C64.2964 22.3958 64.5454 23.0091 65.045 23.4852C65.5432 23.9614 66.1985 24.1994 67.0094 24.1994C68.0128 24.1994 68.7926 23.8605 69.3516 23.1842L71.1193 24.3815C70.1612 25.6138 68.8096 26.2299 67.0632 26.2299C65.4922 26.2299 64.2624 25.7692 63.3722 24.8492C62.482 23.9278 62.0376 22.8509 62.0376 21.6158C62.0376 20.7602 62.2542 19.9718 62.6858 19.252C63.1175 18.5322 63.7218 17.9651 64.4959 17.5533C65.2701 17.1416 66.1362 16.9358 67.0943 16.9358C67.9817 16.9358 68.777 17.1108 69.4832 17.4595C70.1909 17.811 70.7683 18.3081 71.2183 18.9523Z" fill="#3A3A3A"/>
<path d="M77.0973 16.9387C77.9408 16.9387 78.7319 17.1474 79.4749 17.5647C80.2165 17.982 80.7953 18.5477 81.2114 19.2633C81.6275 19.9789 81.8356 20.7505 81.8356 21.5781C81.8356 22.4127 81.6261 23.1927 81.2072 23.9181C80.7883 24.6435 80.2179 25.2106 79.4947 25.6195C78.7715 26.0284 77.9762 26.2329 77.1058 26.2329C75.825 26.2329 74.731 25.782 73.8252 24.8801C72.9195 23.9783 72.4666 22.8832 72.4666 21.5935C72.4666 20.2127 72.9789 19.0617 74.0021 18.1402C74.8994 17.3392 75.9311 16.9387 77.0973 16.9387ZM77.1341 19.0266C76.4378 19.0266 75.8575 19.2661 75.3947 19.7464C74.932 20.2253 74.6999 20.8387 74.6999 21.5865C74.6999 22.3553 74.9291 22.9784 75.3862 23.4546C75.8434 23.9307 76.4236 24.1701 77.1256 24.1701C77.8276 24.1701 78.4107 23.9293 78.8777 23.4476C79.3433 22.9658 79.5768 22.3455 79.5768 21.5865C79.5768 20.8289 79.3475 20.2127 78.8904 19.738C78.4319 19.2633 77.8474 19.0266 77.1341 19.0266Z" fill="#3A3A3A"/>
<path d="M83.3131 17.1656H85.5549V18.1808C85.9384 17.7635 86.3644 17.4527 86.8328 17.2468C87.3013 17.0409 87.8122 16.9387 88.3655 16.9387C88.9246 16.9387 89.4284 17.0746 89.877 17.3448C90.3257 17.6151 90.688 18.0114 90.9611 18.5309C91.3163 18.0114 91.7537 17.6151 92.2716 17.3448C92.7896 17.0746 93.3557 16.9387 93.9685 16.9387C94.604 16.9387 95.163 17.0844 95.6442 17.377C96.1268 17.6697 96.4721 18.052 96.683 18.5225C96.8939 18.993 97 19.7604 97 20.8219V26.0046H94.7427V21.5207C94.7427 20.518 94.6167 19.8403 94.3648 19.486C94.1129 19.1317 93.735 18.9538 93.2312 18.9538C92.8477 18.9538 92.5052 19.0617 92.2009 19.2787C91.8966 19.4958 91.6716 19.794 91.523 20.1763C91.3758 20.5586 91.3008 21.172 91.3008 22.0164V26.006H89.0435V21.7251C89.0435 20.9339 88.984 20.3612 88.8665 20.0069C88.7491 19.6526 88.5722 19.3879 88.3358 19.2143C88.0995 19.0407 87.815 18.9538 87.4796 18.9538C87.106 18.9538 86.7677 19.0631 86.4634 19.2829C86.1592 19.5028 85.9313 19.8094 85.7799 20.2057C85.6299 20.6006 85.5534 21.2238 85.5534 22.0738V26.006H83.3117V17.1656H83.3131Z" fill="#3A3A3A"/>
<path opacity="0.5" d="M9.65909 19.8122C9.64635 19.5686 9.64069 19.3235 9.64069 19.0756C9.64069 18.8292 9.64635 18.5827 9.65909 18.339C9.95629 10.5867 14.9267 4.01903 21.8656 1.31775C22.453 1.08949 22.3412 0.235273 21.7142 0.156853L21.6901 0.154053C12.1797 1.32755 4.82034 9.34877 4.82034 19.077C4.82034 28.8039 12.1797 36.8251 21.6887 38H21.6901C22.3228 37.9216 22.436 37.059 21.843 36.8279C14.9167 34.121 9.95629 27.5576 9.65909 19.8122Z" fill="white"/>
<path d="M0 19.077C0 25.7371 3.4518 31.5962 8.67833 35.0088C9.00384 35.2217 9.31661 35.464 9.67608 35.6166C9.75675 35.6502 9.83742 35.6768 9.92375 35.6894C10.7757 35.8225 11.4904 35.0215 11.4904 34.1728C11.4904 33.7723 11.3319 33.4096 11.0758 33.138C11.0262 33.0932 10.9781 33.0456 10.9286 32.9993C7.16967 29.5195 4.81893 24.572 4.81893 19.0756C4.81893 9.34876 12.1797 1.32614 21.6887 0.152639C20.899 0.0560142 20.0966 0 19.28 0C8.63163 0 0 8.54076 0 19.077Z" fill="#295EA5"/>
<path opacity="0.25" d="M20.9684 4.27384C18.6997 5.62658 16.7396 7.43024 15.2055 9.55738C15.1531 9.62879 15.1007 9.70021 15.0498 9.77303C15.0484 9.77583 15.0455 9.77863 15.0455 9.78143C14.9875 9.93127 14.9833 10.1063 15.088 10.2926C15.1913 10.4774 15.4022 10.5796 15.6173 10.574C15.7107 10.5712 15.8013 10.5306 15.872 10.4802C15.9612 10.4144 16.0291 10.3444 16.1098 10.2688C18.704 7.81954 22.218 6.31696 26.0873 6.31696C30.0203 6.31696 33.5839 7.87275 36.1908 10.3934C36.1979 10.4004 36.2064 10.4074 36.2135 10.4144C36.355 10.5474 36.5616 10.6132 36.7838 10.553C36.9834 10.4984 37.1447 10.3318 37.19 10.1315C37.19 10.1301 37.1914 10.1273 37.1914 10.1259C37.2197 9.99289 37.1801 9.85425 37.1023 9.74362C37.0442 9.6624 36.9862 9.58118 36.9268 9.49996C35.3969 7.39523 33.4467 5.60838 31.195 4.26824C28.056 2.39877 24.1032 2.40297 20.9684 4.27384Z" fill="white"/>
<path opacity="0.5" d="M9.65909 19.8122C9.64635 19.5686 9.64069 19.3235 9.64069 19.0756C9.64069 18.8292 9.64635 18.5827 9.65909 18.339C9.95629 10.5867 14.9267 4.01903 21.8656 1.31775C22.453 1.08949 22.3412 0.235273 21.7142 0.156853L21.6901 0.154053C12.1797 1.32755 4.82034 9.34877 4.82034 19.077C4.82034 28.8039 12.1797 36.8251 21.6887 38H21.6901C22.3228 37.9216 22.436 37.059 21.843 36.8279C14.9167 34.121 9.95629 27.5576 9.65909 19.8122Z" fill="#295EA5"/>
<path opacity="0.25" d="M20.9684 4.27384C18.6997 5.62658 16.7396 7.43024 15.2055 9.55738C15.1531 9.62879 15.1007 9.70021 15.0498 9.77303C15.0484 9.77583 15.0455 9.77863 15.0455 9.78143C14.9875 9.93127 14.9833 10.1063 15.088 10.2926C15.1913 10.4774 15.4022 10.5796 15.6173 10.574C15.7107 10.5712 15.8013 10.5306 15.872 10.4802C15.9612 10.4144 16.0291 10.3444 16.1098 10.2688C18.704 7.81954 22.218 6.31696 26.0873 6.31696C30.0203 6.31696 33.5839 7.87275 36.1908 10.3934C36.1979 10.4004 36.2064 10.4074 36.2135 10.4144C36.355 10.5474 36.5616 10.6132 36.7838 10.553C36.9834 10.4984 37.1447 10.3318 37.19 10.1315C37.19 10.1301 37.1914 10.1273 37.1914 10.1259C37.2197 9.99289 37.1801 9.85425 37.1023 9.74362C37.0442 9.6624 36.9862 9.58118 36.9268 9.49996C35.3969 7.39523 33.4467 5.60838 31.195 4.26824C28.056 2.39877 24.1032 2.40297 20.9684 4.27384Z" fill="#295EA5"/>
</svg>
