<svg width="81" height="19" viewBox="0 0 81 19" fill="none" xmlns="http://www.w3.org/2000/svg">
<g clip-path="url(#clip0)">
<path d="M77.7621 2.02595C75.4378 0.191372 71.0304 0.286391 71.0304 0.286391H63.4582C62.5738 0.286391 62.2668 0.344863 62.3253 0.724936C62.3724 0.811195 62.4408 0.883994 62.5239 0.936436C62.6071 0.988878 62.7022 1.01923 62.8004 1.02461C63.0513 1.05499 63.2844 1.17004 63.4612 1.35076C63.6379 1.53149 63.7477 1.76708 63.7725 2.01865C63.7725 2.64723 63.8675 4.62068 63.8675 5.30774V10.9211C63.8675 11.652 63.8675 12.9238 63.8675 13.6766V17.1631C63.8675 17.5282 64.012 17.8785 64.2695 18.1373C64.527 18.3962 64.8765 18.5426 65.2416 18.5445H69.7586C71.6806 18.5273 73.5831 18.1582 75.372 17.4554C77.0416 16.7596 78.4641 15.5791 79.4557 14.0663C80.4472 12.5535 80.9623 10.7781 80.9342 8.96959C80.9629 7.64797 80.6925 6.33696 80.1432 5.13456C79.5939 3.93216 78.7799 2.86948 77.7621 2.02595ZM70.1168 16.9438H69.9414C68.8889 16.9438 67.7998 16.9438 67.2297 16.381C67.0728 16.2006 66.9538 15.9906 66.8797 15.7633C66.8056 15.5361 66.778 15.2962 66.7985 15.0581V6.65992C66.7985 4.92766 66.7546 4.11635 66.7985 2.17214C67.8396 2.02592 68.89 1.95508 69.9414 1.96017C71.9367 1.96017 74.0198 2.23061 75.7886 4.1529C77.0055 5.57247 77.6377 7.40125 77.5574 9.26926C77.5501 13.969 74.6338 16.9438 70.1168 16.9438ZM62.2961 17.8574C62.0513 17.758 61.8348 17.6 61.6653 17.3974C61.4958 17.1948 61.3786 16.9537 61.3239 16.6953C61.3239 16.3664 60.9804 1.71897 60.9804 1.71897C60.9804 0.988063 60.9804 0.410645 60.7977 0.337554C60.282 0.266256 59.7609 0.241792 59.2409 0.264463C58.8132 0.200142 58.3762 0.242834 57.9691 0.388718C57.7059 0.823869 57.4926 1.28726 57.3332 1.77014L55.9956 4.74494L54.6873 7.24465L52.6554 11.1842C52.6206 11.3296 52.5378 11.459 52.4205 11.5516C52.3031 11.6442 52.158 11.6945 52.0085 11.6945C51.859 11.6945 51.7139 11.6442 51.5966 11.5516C51.4792 11.459 51.3964 11.3296 51.3617 11.1842L49.2566 7.30312L47.941 4.88381L46.4792 1.7409C46.3159 1.2643 46.1079 0.804213 45.8579 0.366791C45.4016 0.239651 44.925 0.202415 44.4546 0.257154H42.6565C41.7721 0.257154 41.3701 0.257154 41.4286 0.637227C41.4752 0.723942 41.5434 0.797119 41.6267 0.849634C41.7099 0.902149 41.8054 0.932213 41.9037 0.9369C42.1256 1.0361 42.3134 1.19859 42.4434 1.40402C42.5734 1.60945 42.6399 1.84868 42.6346 2.09174C42.6346 2.42065 42.6346 15.767 42.5615 16.3518C42.5615 16.4468 42.5615 16.5491 42.5103 16.6514C42.4878 16.9278 42.3822 17.1909 42.2074 17.4062C42.0326 17.6214 41.7968 17.7787 41.5309 17.8574C41.4326 17.8621 41.3372 17.8922 41.2539 17.9447C41.1707 17.9972 41.1024 18.0704 41.0558 18.1571C40.9974 18.5299 41.4067 18.5445 42.2911 18.5445H45.2147C46.0991 18.5445 46.5084 18.5445 46.4573 18.1571C46.4107 18.0704 46.3424 17.9972 46.2592 17.9447C46.1759 17.8922 46.0805 17.8621 45.9822 17.8574C45.7255 17.7779 45.4972 17.6259 45.3247 17.4197C45.1523 17.2136 45.043 16.962 45.0101 16.6953C44.9439 16.3621 44.8976 16.0253 44.8712 15.6866C44.8712 14.9557 44.8273 13.684 44.8346 12.9311V12.6753C44.8346 11.9444 44.8346 10.6726 44.8785 9.91977L44.9516 6.93035C44.9516 6.19945 45.2805 6.09712 45.6386 6.76225L47.6121 10.4168C47.9702 11.0819 49.8633 14.6634 50.1995 15.3358C50.2257 15.4722 50.2787 15.6021 50.3556 15.7178C50.4326 15.8335 50.5318 15.9327 50.6474 16.0096C50.7631 16.0864 50.893 16.1395 51.0294 16.1656C51.1659 16.1918 51.3061 16.1904 51.4421 16.1617C52.4361 16.1617 52.4361 15.8986 52.8454 15.0215C53.1451 14.3783 57.377 6.05326 57.377 6.05326C57.7206 5.38083 58.0202 5.44661 58.0422 6.19945C58.0422 6.19945 58.0933 16.3445 58.0422 16.8049V16.9584C57.9811 17.1724 57.8665 17.3672 57.7092 17.5245C57.5519 17.6818 57.3571 17.7964 57.1431 17.8574C57.045 17.8628 56.9498 17.8932 56.8667 17.9456C56.7836 17.9981 56.7152 18.0709 56.6681 18.1571C56.6096 18.5299 57.0189 18.5445 57.9033 18.5445H61.5578C62.4495 18.5445 62.8515 18.5445 62.8004 18.1571C62.749 18.0681 62.6757 17.9938 62.5874 17.9414C62.4991 17.8889 62.3988 17.86 62.2961 17.8574Z" fill="#231F20"/>
<path d="M22.5266 2.09648C22.6641 1.64123 22.94 1.24012 23.316 0.948957C23.4482 0.938466 23.5767 0.899768 23.6926 0.835467C23.8086 0.771167 23.9095 0.682757 23.9885 0.576193C24.0542 0.305757 23.813 0.232666 22.8482 0.232666H19.9246C19.0402 0.232666 18.6309 0.232666 18.6894 0.620048C18.7365 0.706307 18.8049 0.779106 18.888 0.831547C18.9712 0.883989 19.0663 0.914339 19.1645 0.91972C20.005 1.15361 20.5678 1.58485 20.3047 2.46194C20.0415 3.33903 16.387 14.0907 16.387 14.0907C16.2481 14.4781 15.89 14.5877 15.7804 14.0103L13.8873 4.96165C13.7265 4.23074 13.5511 3.26594 13.4853 2.84932C13.4388 2.67184 13.3329 2.51562 13.1853 2.40659C13.0377 2.29757 12.8573 2.24231 12.674 2.24997C12.508 2.24543 12.3442 2.28932 12.2028 2.37628C12.0613 2.46324 11.9482 2.58952 11.8773 2.73968C11.6361 3.24401 11.1464 4.2015 10.8102 4.89587L5.99348 14.1492C5.79613 14.4927 5.54762 14.3904 5.51108 13.9811L4.91173 4.6035C4.91173 3.87259 4.83864 2.41077 4.84595 2.17688C4.84749 1.88835 4.94544 1.60862 5.12423 1.38215C5.30302 1.15569 5.55238 0.995491 5.83268 0.92703C5.93574 0.919005 6.03517 0.885391 6.12195 0.829234C6.20874 0.773077 6.28015 0.696152 6.3297 0.60543C6.38817 0.232666 5.95693 0.239975 5.07253 0.239975H1.41799C0.83326 0.254593 0.555514 0.320375 0.599369 0.627357C0.646504 0.713616 0.714879 0.786415 0.798019 0.838857C0.881159 0.891299 0.97631 0.921648 1.07446 0.92703C1.26061 0.977595 1.43291 1.06961 1.57847 1.19618C1.72403 1.32276 1.83908 1.48061 1.91501 1.65794C1.97055 1.78687 2.01935 1.91862 2.06119 2.05263V2.12572V2.17688C2.05979 2.20123 2.05979 2.22563 2.06119 2.24997C2.2315 3.0825 2.3511 3.92459 2.41933 4.77161L3.21602 16.2323C3.1974 17.0174 3.28343 17.8015 3.47184 18.5639C3.69842 19.039 4.76555 19.0097 5.18948 18.3738C5.30642 18.1911 11.3218 6.89856 11.3218 6.89856C11.6726 6.22612 12.0527 6.28459 12.2354 7.03012L14.1212 16.3346C14.2372 17.0272 14.4009 17.711 14.6109 18.3811C14.8667 19.0536 16.1531 18.9366 16.4966 18.2788C16.8445 17.6093 17.1496 16.9184 17.4103 16.2103C17.4103 16.2103 22.322 2.68852 22.5266 2.09648ZM38.3801 6.48194C36.0338 6.48194 33.8923 8.6235 32.4816 10.2461C32.5566 9.77911 32.6716 9.31939 32.8251 8.87201L35.0179 1.56292C35.0774 1.41034 35.0973 1.24521 35.0759 1.08285C35.0546 0.920487 34.9925 0.766161 34.8955 0.634194C34.7986 0.502226 34.6698 0.396896 34.5213 0.327978C34.3727 0.25906 34.2091 0.228789 34.0458 0.239975H32.1966C31.3122 0.239975 30.9029 0.239975 30.954 0.627357C31.0012 0.713616 31.0695 0.786415 31.1527 0.838857C31.2358 0.891299 31.331 0.921648 31.4291 0.92703C32.3062 1.17554 32.5986 2.15496 32.3647 3.22208C32.3647 3.13438 30.1719 11.9053 30.1719 11.9053C29.8983 12.7704 29.4251 13.5591 28.7905 14.2076C28.7905 14.2076 26.1373 17.4456 23.4622 17.4456C23.1832 17.4734 22.9015 17.4405 22.6363 17.3492C22.3712 17.2579 22.129 17.1104 21.9262 16.9167C21.7235 16.7229 21.5651 16.4877 21.4618 16.227C21.3585 15.9663 21.3129 15.6863 21.328 15.4063C21.3186 14.75 21.3873 14.0949 21.5326 13.4548C24.3247 13.1917 29.3241 11.9053 29.3241 8.33845C29.3241 6.87663 27.9427 6.48194 26.7659 6.48194C22.9798 6.48194 19.2449 11.1013 19.2449 15.2528C19.2449 16.9997 20.0562 18.7758 22.4609 18.7758C26.9779 18.7758 29.4337 14.3904 29.5726 14.2223C29.4565 14.8033 29.3833 15.392 29.3533 15.9838C29.3533 17.8914 30.7421 18.7758 32.4597 18.7758C33.8182 18.7253 35.1382 18.3113 36.2823 17.5771C37.2663 16.9849 38.1537 16.2454 38.9136 15.3844C40.3648 13.8685 41.2323 11.8875 41.3622 9.79296C41.3549 7.84874 40.4924 6.51117 38.402 6.51117L38.3801 6.48194ZM26.1812 7.36634C26.3292 7.3569 26.4774 7.37998 26.6156 7.43395C26.7537 7.48792 26.8783 7.57148 26.9807 7.67875C27.0831 7.78602 27.1608 7.9144 27.2083 8.05488C27.2558 8.19537 27.2719 8.34454 27.2556 8.49194C27.2556 11.3425 24.0981 12.5923 21.6934 12.7531C22.0808 11.0209 24.1493 7.36634 26.1812 7.36634ZM38.0804 13.5644C37.5157 14.7144 36.776 15.7697 35.8877 16.6927C35.123 17.5431 34.0604 18.0666 32.9202 18.1546C31.7215 18.1546 31.3268 17.007 31.3268 15.9618C31.3268 13.0382 34.5135 7.60023 37.7515 7.60023C38.9502 7.60023 39.3156 8.43347 39.3156 9.4275C39.201 10.8766 38.772 12.2833 38.0585 13.5498L38.0804 13.5644Z" fill="#0080C5"/>
<path d="M78.9827 1.35835C78.9827 1.24029 79.0059 1.12339 79.0511 1.01431C79.0963 0.905239 79.1625 0.806132 79.246 0.722651C79.3295 0.639169 79.4286 0.572948 79.5377 0.527768C79.6467 0.482588 79.7636 0.459334 79.8817 0.459334C79.9998 0.459334 80.1167 0.482588 80.2257 0.527768C80.3348 0.572948 80.4339 0.639169 80.5174 0.722651C80.6009 0.806132 80.6671 0.905239 80.7123 1.01431C80.7575 1.12339 80.7807 1.24029 80.7807 1.35835C80.7807 1.47641 80.7575 1.59332 80.7123 1.70239C80.6671 1.81147 80.6009 1.91057 80.5174 1.99405C80.4339 2.07754 80.3348 2.14376 80.2257 2.18894C80.1167 2.23412 79.9998 2.25737 79.8817 2.25737C79.7636 2.25737 79.6467 2.23412 79.5377 2.18894C79.4286 2.14376 79.3295 2.07754 79.246 1.99405C79.1625 1.91057 79.0963 1.81147 79.0511 1.70239C79.0059 1.59332 78.9827 1.47641 78.9827 1.35835ZM79.8817 2.46933C80.0987 2.46502 80.3096 2.39682 80.488 2.27328C80.6665 2.14973 80.8045 1.97632 80.8849 1.77473C80.9653 1.57314 80.9845 1.35232 80.94 1.13989C80.8956 0.927454 80.7895 0.732839 80.635 0.580382C80.4806 0.427924 80.2846 0.324391 80.0716 0.282732C79.8586 0.241072 79.6381 0.263134 79.4375 0.34616C79.237 0.429185 79.0654 0.569488 78.9442 0.749521C78.823 0.929555 78.7576 1.14133 78.7561 1.35835C78.7561 1.50515 78.7853 1.65048 78.8422 1.78584C78.899 1.92119 78.9823 2.04385 79.0871 2.14662C79.1919 2.2494 79.3162 2.33023 79.4526 2.38439C79.5891 2.43855 79.7349 2.46494 79.8817 2.46203V2.46933ZM79.6478 1.44606H79.8671L80.2033 2.00155H80.4226L80.0571 1.43875C80.1022 1.43885 80.1469 1.42968 80.1883 1.41179C80.2297 1.39391 80.267 1.3677 80.2978 1.3348C80.3287 1.3019 80.3524 1.263 80.3676 1.22053C80.3828 1.17806 80.389 1.13292 80.386 1.08792C80.3893 1.0311 80.3789 0.974339 80.3558 0.922326C80.3327 0.870314 80.2976 0.824551 80.2533 0.788829C80.209 0.753107 80.1568 0.728454 80.1011 0.716912C80.0454 0.705371 79.9877 0.707273 79.9329 0.722462H79.4505V1.99424H79.6478V1.44606ZM79.6478 1.28526V0.883262H79.9109C80.0498 0.883262 80.1887 0.883262 80.1887 1.0733C80.1887 1.26333 80.0425 1.27795 79.8744 1.27795H79.6478V1.28526Z" fill="#231F20"/>
</g>
<defs>
<clipPath id="clip0">
<rect width="80.4" height="18.6601" fill="white" transform="translate(0.600006 0.232666)"/>
</clipPath>
</defs>
</svg>
